<?xml version="1.0" ?><!DOCTYPE svg  PUBLIC '-//W3C//DTD SVG 1.1//EN'  'http://www.w3.org/Graphics/SVG/1.1/DTD/svg11.dtd'><svg enable-background="new 0 0 512 512" height="512px" id="Layer_1" version="1.1" viewBox="0 0 512 512" width="512px" xml:space="preserve" xmlns="http://www.w3.org/2000/svg" xmlns:xlink="http://www.w3.org/1999/xlink"><path d="M464.639,213.417c0-114.89-93.141-208.162-208.04-208.162c-114.9,0-208.04,93.333-208.04,208.222  c0,57.57,23.38,109.522,61.16,147.522h-0.2l147.08,147.08L403.679,361h-0.2C441.259,323,464.639,270.987,464.639,213.417z   M301.952,238H273c0,47,0,106,0,106h-44c0,0,0-58,0-106h-21v-38h21v-24.231c0-17.315,8.258-44.371,44.403-44.371L306,131.522V168  c0,0-20.555,0-24.398,0c-3.852,0-8.602,1.722-8.602,9.977V200h32.786L301.952,238z" fill="#336378"/><linearGradient gradientUnits="userSpaceOnUse" id="SVGID_1_" x1="257.1523" x2="577.9569" y1="231.7275" y2="445.5973"><stop offset="0" style="stop-color:#000000"/><stop offset="1" style="stop-color:#000000;stop-opacity:0.2"/></linearGradient><path d="M464.777,208.36L306,131.522V168c0,0-20.555,0-24.398,0  c-3.852,0-8.602,1.722-8.602,9.977V200h32.786l-3.834,38H273c0,47,0,106,0,106h-43.901l96.463,95.117L403.679,361h-0.2  c37.78-38,61.261-90.013,61.261-147.583C464.739,211.808,464.814,209.961,464.777,208.36z" fill="url(#SVGID_1_)" opacity="0.1"/></svg>