<?xml version="1.0" ?><!DOCTYPE svg  PUBLIC '-//W3C//DTD SVG 1.1//EN'  'http://www.w3.org/Graphics/SVG/1.1/DTD/svg11.dtd'><svg enable-background="new 0 0 512 512" height="512px" id="Layer_1" version="1.1" viewBox="0 0 512 512" width="512px" xml:space="preserve" xmlns="http://www.w3.org/2000/svg" xmlns:xlink="http://www.w3.org/1999/xlink"><path d="M464.639,213.417c0-114.89-93.141-208.162-208.04-208.162c-114.9,0-208.04,93.333-208.04,208.222  c0,57.57,23.38,109.522,61.16,147.522h-0.2l147.08,147.08L403.679,361h-0.2C441.259,323,464.639,270.987,464.639,213.417z   M171.438,277.214c13.66-0.28,27.32-4.091,38.939-10.86l7.841-4.699l-9-3.08c-12.79-4.411-24.271-14.551-27.17-24.101  c-0.881-3.09-0.591-3.24,7.55-3.24l8.42-0.14l-7.12-3.39c-8.43-4.26-16.13-11.46-19.91-18.8c-2.76-5.29-6.24-18.66-5.229-19.69  c0.3-0.43,3.34,0.45,6.84,1.61c10.01,3.69,11.319,2.81,5.51-3.37c-10.89-11.16-14.23-27.76-9.01-43.49l2.47-7.05l9.59,9.55  c19.62,19.25,42.73,30.71,69.17,34.08l7.271,0.88l-0.44-7.19c-1.3-18.66,10.17-35.7,28.34-42.31c6.681-2.36,18.021-2.64,25.431-0.59  c2.92,0.88,8.43,3.82,12.35,6.46l7.12,4.86l7.85-2.51c4.36-1.31,10.17-3.52,12.79-4.99c2.471-1.32,4.65-2.05,4.65-1.62  c0,2.5-5.38,11.03-9.89,15.73c-6.11,6.61-4.36,7.19,8,2.79c7.399-2.5,7.55-2.5,6.1,0.3c-0.88,1.46-5.37,6.6-10.17,11.3  c-8.14,8.08-8.57,8.96-8.57,15.72c0,10.42-4.95,32.18-9.89,44.07c-9.16,22.34-28.771,45.4-48.391,57.009  c-27.609,16.301-64.369,20.42-95.319,10.871c-10.32-3.24-28.05-11.461-28.05-12.931  C159.509,277.953,164.889,277.363,171.438,277.214z" fill="#336378"/><linearGradient gradientUnits="userSpaceOnUse" id="SVGID_1_" x1="308.9033" x2="483.0477" y1="257.2998" y2="387.4077"><stop offset="0" style="stop-color:#000000"/><stop offset="1" style="stop-color:#000000;stop-opacity:0.2"/></linearGradient><path d="M355.688,134c-0.006,3-5.382,10.797-9.889,15.494c-6.11,6.61-4.36,7.075,8,2.675  c7.399-2.5,7.55-2.558,6.1,0.242c-0.88,1.46-5.37,6.571-10.17,11.271c-8.14,8.08-8.57,8.946-8.57,15.706  c0,10.42-4.95,32.173-9.89,44.063c-9.16,22.34-28.771,45.396-48.391,57.006c-27.609,16.301-64.369,20.418-95.319,10.869  c-8.888-2.791-23.262-9.272-27.082-11.957l164.358,160.232L403.679,361h-0.2c37.78-38,61.16-90.013,61.16-147.583  c0-3.51-0.09-6.89-0.262-10.357C416.132,171.897,355.689,134,355.689,134H355.688z" fill="url(#SVGID_1_)" opacity="0.1"/></svg>